<?xml version="1.0" encoding="UTF-8"?>
<svg width="22px" height="24px" viewBox="0 0 22 24" version="1.1" xmlns="http://www.w3.org/2000/svg" xmlns:xlink="http://www.w3.org/1999/xlink">
    <!-- Generator: Sketch 64 (93537) - https://sketch.com -->
    <title>addvertise</title>
    <desc>Created with Sketch.</desc>
    <g id="Page-1" stroke="none" stroke-width="1" fill="none" fill-rule="evenodd">
        <g id="Homepage" transform="translate(-356.000000, -1082.000000)" fill="#FFFFFF" fill-rule="nonzero">
            <g id="explore-category" transform="translate(-179.000000, 818.000000)">
                <g id="Category-box" transform="translate(308.000000, 219.000000)">
                    <g id="Group-4" transform="translate(215.000000, 34.000000)">
                        <g id="addvertise" transform="translate(12.000000, 11.000000)">
                            <path d="M9.267,19.06 C9.126,18.92 9.066,18.72 9.105,18.527 L9.991,14.099 C10.046,13.828 9.87,13.565 9.598,13.511 C9.34,13.456 9.065,13.632 9.01,13.903 L8.99,14 L4.207,14 L3.853,13.646 C3.658,13.451 3.341,13.451 3.146,13.646 C2.951,13.841 2.951,14.158 3.146,14.353 L5,16.207 L5,19.93 C5,20.768 5.416,21.545 6.113,22.01 L8.222,23.416 C8.308,23.473 8.404,23.5 8.5,23.5 C8.629,23.5 8.757,23.45 8.854,23.354 L9.268,22.94 C9.74,22.467 10,21.839 10,21.171 L10,20.828 C10,20.161 9.74,19.533 9.267,19.06 Z" id="Path"></path>
                            <g id="Group">
                                <path d="M18,0.5 C15.402,0.5 14,5.652 14,10.5 C14,15.348 15.402,20.5 18,20.5 C20.598,20.5 22,15.348 22,10.5 C22,5.652 20.598,0.5 18,0.5 Z M18,19.5 C16.584,19.5 15,15.651 15,10.5 C15,10.224 15.224,10 15.5,10 C15.776,10 16,10.224 16,10.5 C16,15.685 17.535,18.361 18.022,18.502 C18.298,18.502 18.5110032,18.725 18.5110032,19.001 C18.512,19.277 18.276,19.5 18,19.5 Z M19.046,12.861 C18.949,12.952 18.826,12.997 18.703,12.997 C18.57,12.997 18.437,12.944 18.34,12.84 C18.151,12.639 18.159,12.322 18.361,12.133 C18.761,11.755 19.001,11.144 19.001,10.499 C19.001,9.812 18.737,9.181 18.297,8.808 C18.086,8.63 18.059,8.314 18.237,8.103 C18.415,7.892 18.732,7.867 18.941,8.044 C19.604,8.605 20,9.523 20,10.5 C20,11.429 19.652,12.29 19.046,12.861 Z" id="Shape"></path>
                                <path d="M15.181,13.429 C15.17,13.345 15.159,13.262 15.149,13.177 C15.129,12.996 15.112,12.813 15.096,12.628 C15.078,12.425 15.063,12.219 15.05,12.01 C15.042,11.875 15.033,11.741 15.027,11.605 C15.011,11.243 15,10.876 15,10.5 C15,7.153 15.657,4.079 16.716,2.476 C16.849,2.275 16.82,2.009 16.647,1.842 C16.474,1.675 16.207,1.654 16.011,1.792 L9.341,6.5 L4,6.5 C1.794,6.5 0,8.294 0,10.5 C0,12.706 1.794,14.5 4,14.5 L9.341,14.5 L16.011,19.208 C16.098,19.269 16.199,19.299 16.299,19.299 C16.425,19.299 16.551,19.251 16.647,19.158 C16.82,18.991 16.849,18.724 16.716,18.524 C15.978,17.407 15.442,15.569 15.181,13.429 Z M6.5,8.5 L4,8.5 C2.897,8.5 2,9.397 2,10.5 C2,10.776 1.776,11 1.5,11 C1.224,11 1,10.776 1,10.5 C1,8.846 2.346,7.5 4,7.5 L6.5,7.5 C6.776,7.5 7,7.724 7,8 C7,8.276 6.776,8.5 6.5,8.5 Z" id="Shape"></path>
                            </g>
                        </g>
                    </g>
                </g>
            </g>
        </g>
    </g>
</svg>